<svg height="512" viewBox="0 0 60 52" width="512" xmlns="http://www.w3.org/2000/svg"><g id="Page-1" fill="none" fill-rule="evenodd"><g id="017---Chocolate" fill="rgb(0,0,0)" fill-rule="nonzero"><path id="Shape" d="m44.669 6.975c3.193 1.085 4.331 2.274 4.331 3.025s-1.138 1.94-4.331 3.025c-.4634737.1572157-.7450608.6267794-.6654466 1.109673s.4970341.8372127.9864466.837327c.1095978.000132.2184413-.0181213.322-.054 4.701-1.596 5.688-3.555 5.688-4.918s-.987-3.322-5.688-4.918c-.3411791-.12659182-.7241951-.05784926-1.0000574.17948728s-.4010181.60579669-.3267826.96205184c.0742356.35625514.3361422.6440602.68384.75146088z"/><path id="Shape" d="m14.688 14.918c.1035587.0358787.2124022.054132.322.054.4894125-.0001143.9068324-.3544334.9864466-.837327s-.2019729-.9524573-.6654466-1.109673c-3.193-1.085-4.331-2.274-4.331-3.025s1.138-1.94 4.331-3.025c.3476978-.10740068.6096044-.39520574.68384-.75146088.0742355-.35625515-.0509203-.7247153-.3267826-.96205184s-.6588783-.3060791-1.0000574-.17948728c-4.701 1.596-5.688 3.555-5.688 4.918s.987 3.322 5.688 4.918z"/><path id="Shape" d="m30 14c1.433 0 14-.112 14-4s-12.567-4-14-4-14 .112-14 4 12.567 4 14 4zm0-6c6.929 0 11.228 1.233 11.944 2-.716.767-5.015 2-11.944 2s-11.228-1.233-11.944-2c.716-.767 5.015-2 11.944-2z"/><path id="Shape" d="m55.993 9.882c-.154-5.642-11.274-9.882-25.993-9.882s-25.839 4.24-25.993 9.882l-4 30.548c-.00531271.0431214-.00765157.0865574-.007.13 0 6.415 13.178 11.44 30 11.44s30-5.025 30-11.44c-.0000115-.0434886-.0030186-.0869247-.009-.13zm-25.993-7.882c14.144 0 24 4.216 24 8s-9.856 8-24 8-24-4.216-24-8 9.856-8 24-8zm0 48c-16.676 0-27.9-4.838-28-9.38l3.546-27.09c3.554 3.855 12.895 6.47 24.454 6.47s20.9-2.615 24.454-6.47l3.546 27.09c-.1 4.542-11.324 9.38-28 9.38z"/><path id="Shape" d="m25.338 38c-.5443954-.0066328-1.0014085.4084765-1.047.951l-.29 6c-.0133189.2652984.0794632.5249949.257876.721793.1784128.1967982.4277944.3145251.693124.327207h.048c.53407.0006156.974365-.4185453 1-.952l.29-6c.0130405-.2652954-.0800007-.5248793-.2585984-.7214869-.1785977-.1966077-.4280769-.3140839-.6934016-.3265131z"/><path id="Shape" d="m26.048 23c-.5483614-.0157461-1.0111521.4046515-1.048.952l-.48 10c-.0130405.2652954.0800007.5248793.2585984.7214869.1785977.1966077.4280769.3140839.6934016.3265131h.049c.53407.0006156.974365-.4185453 1-.952l.48-10c.0130363-.2654609-.0801406-.525191-.2589521-.7218274s-.428546-.3140008-.6940479-.3261726z"/><path id="Shape" d="m16.576 38c-.2640269-.0253473-.527308.0552377-.7319146.2240241-.2046066.1687863-.3337752.4119454-.3590854.6759759l-.48 5c-.0279374.2647015.0508068.5296188.218794.7360835s.4113545.3374387.676206.3639165h.1c.5154781.0025832.948458-.3870987 1-.9l.481-5c.0278495-.2662796-.0522408-.5326063-.2223411-.739358s-.4160032-.3366599-.6826589-.360642z"/><path id="Shape" d="m18.1 22c-.5494401-.0521958-1.0372823.3506097-1.09.9l-1.05 11c-.0253473.2640269.0552377.527308.2240241.7319146.1687863.2046066.4119454.3337752.6759759.3590854h.1c.5149184-.0007607.9450833-.3924098.994-.905l1.046-10.986c.0278903-.2654886-.0515274-.531108-.2205699-.7377155-.1690426-.2066076-.4136759-.3370505-.6794301-.3622845z"/><path id="Shape" d="m8.571 38.01c-.26256998-.0376969-.52935956.0304741-.74165934.1895114-.21229977.1590372-.35271305.3959087-.39034066.6584886l-.429 3c-.05073171.3536929.09108318.7075837.37202439.9283651.28094121.2207815.65832708.2749116.99.142.33167293-.1329115.5672439-.4326722.61797561-.7863651l.43-3c.03768068-.2627208-.03062513-.5296446-.18987067-.741972-.15924555-.2123274-.39636674-.3526396-.65912933-.390028z"/><path id="Shape" d="m11.142 20.01c-.26257-.0376969-.5293596.0304741-.7416593.1895114-.2122998.1590372-.3527131.3959087-.3903407.6584886l-1.861 13c-.05073171.3538716.09117848.7079274.37227439.9287982.28109591.2208707.65867238.2750008.9905.142.33182763-.1330009.56749391-.4329266.61822561-.7867982l1.86-13c.0376969-.26257-.0304741-.5293596-.1895114-.7416593-.1590372-.2122998-.3959087-.3527131-.6584886-.3903407z"/><path id="Shape" d="m43.424 38c-.2642212.0253028-.507543.1546131-.6763577.3594415-.1688146.2048284-.2492706.4683687-.2236423.7325585l.481 5c.0475039.5141587.4786516.9076081.995.908h.1c.2657542-.025234.5103875-.1556769.6794301-.3622845.1690425-.2066075.2484602-.4722269.2205699-.7377155l-.48-5c-.0563206-.5500039-.5455463-.9517404-1.096-.9z"/><path id="Shape" d="m43.145 35c.2640305-.0253102.5071896-.1544788.6759759-.3590854.1687864-.2046066.2493714-.4678877.2240241-.7319146l-1.05-11c-.0234513-.3638631-.243087-.6861218-.5731796-.8409933s-.718315-.117805-1.0131375.0967317c-.2948225.2145368-.449509.5725348-.4036829.9342616l1.05 11c.0489167.5125902.4790816.9042393.994.905.031-.004.063-.004.096-.004z"/><path id="Shape" d="m51 34.99c.2627626-.0373884.4998838-.1777006.6591293-.390028.1592456-.2123274.2275514-.4792512.1898707-.741972l-1.861-13c-.0784244-.5467619-.5852381-.9264244-1.132-.848s-.9264244.5852381-.848 1.132l1.86 13c.0376276.2625799.1780409.4994514.3903407.6584886.2122997.1590373.4790893.2272083.7416593.1895114z"/><path id="Shape" d="m51.429 38.01c-.2627626.0373884-.4998838.1777006-.6591293.390028-.1592456.2123274-.2275514.4792512-.1898707.741972l.43 3c.0507317.353693.2863027.6534537.6179756.7863652s.7090588.0787814.99-.142c.2809413-.2207814.4227561-.5746723.3720244-.9283652l-.429-3c-.0376276-.2625799-.1780409-.4994514-.3903407-.6584886-.2122997-.1590373-.4790893-.2272083-.7416593-.1895114z"/><path id="Shape" d="m34.662 38c-.2649656.0126906-.5140321.1301392-.6923876.326499-.1783554.1963597-.2713838.4555393-.2586124.720501l.29 6c.0251004.5334619.4649479.9530561.999.953h.049c.2651475-.0126864.5143714-.1302742.6927555-.3268531s.2712895-.4560168.2582445-.7211469l-.29-6c-.0432205-.5442442-.5021182-.9611055-1.048-.952z"/><path id="Shape" d="m34.479 35h.049c.2649656-.0126906.5140321-.1301392.6923876-.326499.1783554-.1963597.2713838-.4555393.2586124-.720501l-.48-10c-.0178633-.3572656-.2249686-.6778627-.5433013-.8410254s-.6995305-.1441029-1 .05c-.3004694.1941028-.474562.5337598-.4566987.8910254l.48 10c.0282078.5314846.467768.947748 1 .947z"/></g></g></svg>