<svg id="Capa_1" enable-background="new 0 0 512.01 512.01" height="512" viewBox="0 0 512.01 512.01" width="512" xmlns="http://www.w3.org/2000/svg"><g><path d="m499.439 168.676c-3.488-34.573-22.323-65.043-51.674-83.597-29.351-18.553-64.954-22.496-97.655-10.822-14.218 5.03-29.726 11.259-45.648 18.875-43.9-45.238-101.349-71.955-142.538-86.528-32.728-11.68-68.332-7.739-97.685 10.815-29.35 18.553-48.182 49.019-51.664 83.562-6.079 58.611-4.207 142.779 39.193 210.841 19.525 31.161 47.791 58.85 84.017 82.385.397 5.79.887 11.397 1.445 16.786 3.488 34.573 22.323 65.043 51.674 83.597 18.246 11.533 38.907 17.42 59.786 17.42 12.708 0 25.496-2.181 37.868-6.597 29.244-10.344 56.359-23.066 80.595-37.814 4.718-2.871 6.215-9.023 3.344-13.741-2.871-4.719-9.023-6.214-13.741-3.345-23.06 14.032-48.921 26.159-76.895 36.054-26.893 9.601-56.152 6.362-80.271-8.884-24.119-15.245-39.595-40.285-42.464-68.724-5.741-55.459-4.119-134.845 36.251-198.16 39.832-63.578 110.844-99.092 163.429-117.698 26.895-9.599 56.153-6.361 80.271 8.884 24.119 15.245 39.595 40.285 42.464 68.726 5.749 55.445 4.134 134.819-36.251 198.159-5.653 9.023-12.218 17.868-19.514 26.289-3.617 4.174-3.165 10.489 1.009 14.105 4.174 3.617 10.49 3.164 14.106-1.01 7.967-9.195 15.149-18.874 21.305-28.7 43.442-68.13 45.317-152.296 39.243-210.878zm-322.967 31.438c-21.447 33.636-32.756 71.191-37.984 107.649-10.979-10.468-20.158-21.54-27.369-33.046l-.21-.34c-.025-.04-.05-.08-.075-.12-13.894-21.791-23.203-48.926-27.67-80.649-.771-5.469-5.832-9.275-11.297-8.508-5.469.77-9.278 5.828-8.508 11.297 4.865 34.55 15.15 64.342 30.573 88.554l.206.332c10.485 16.733 24.5 32.496 41.693 46.924-.958 12.724-1.262 25.166-1.089 37.096-28.058-20.059-50.242-42.908-66.069-68.165-40.344-63.27-41.957-142.646-36.202-198.122 2.864-28.41 18.337-53.447 42.454-68.69 24.12-15.246 53.379-18.485 80.302-8.875 37.804 13.376 89.888 37.392 130.515 77.224-8.96 4.857-17.942 10.16-26.799 15.966-16.845-15.361-37.186-29.379-60.604-41.732-4.883-2.576-10.933-.706-13.511 4.179-2.577 4.885-.706 10.934 4.179 13.511 20.373 10.747 38.18 22.771 53.108 35.827-24.941 18.638-48.03 41.574-65.643 69.688z"/><path d="m398.907 423.028c-5.523 0-10 4.478-10 10s4.477 10 10 10 10-4.478 10-10c0-5.523-4.477-10-10-10z"/><path d="m393.295 222.838c-1.486-10.544-7.491-19.849-16.476-25.527-8.984-5.678-19.964-7.112-30.125-3.93-24.556 7.686-58.803 24.72-82.511 62.225-23.708 37.504-24.402 75.748-20.811 101.226 1.486 10.544 7.491 19.848 16.475 25.526 5.844 3.694 12.532 5.592 19.29 5.592 3.632 0 7.284-.548 10.837-1.66 24.555-7.686 58.803-24.72 82.51-62.226l-.001.001c23.709-37.504 24.404-75.749 20.812-101.227zm-37.715 90.539v.001c-20.465 32.375-50.221 47.14-71.579 53.824-9.249 3.1-19.654-3.48-20.824-13.162-3.124-22.162-2.552-55.374 17.912-87.749 20.465-32.374 50.221-47.139 71.58-53.824 9.216-3.102 19.663 3.478 20.822 13.162 3.124 22.162 2.552 55.375-17.911 87.748z"/><path d="m133.618 130.369c-9.96-16.901-18.636-34.766-25.785-53.097-2.006-5.145-7.805-7.692-12.95-5.683-5.146 2.007-7.69 7.805-5.683 12.95 7.537 19.326 16.684 38.162 27.187 55.983 6.718 11.398 14.115 22.588 21.985 33.257 1.961 2.658 4.988 4.064 8.055 4.064 2.062 0 4.142-.636 5.929-1.954 4.444-3.278 5.389-9.539 2.111-13.983-7.465-10.117-14.479-20.728-20.849-31.537z"/></g></svg>